# xmcd
#
# Track frame offsets:
#	150
#	9531
#	22275
#	34728
#	45244
#	55324
#	64851
#	76848
#	89163
#	103809
#	113924
#	122912
#	133781
#	145190
#	155392
#	166629
#	177679
#	189971
#	205793
#	217017
#	226834
#	237492
#	248003
#
# Disc length: 3414 seconds
#
# Revision: 0
# Processed by: cddbd v1.5.1PL2 Copyright (c) Steve Scherf et al.
# Submitted via: audiograbber 1.83.01
#
DISCID=430d5417
DTITLE=Diverse Interpreten - Countrie Hits 2
DYEAR=1900
DGENRE=
TTITLE0=Maybe little baby
TTITLE1=Just a closer walk with thee
TTITLE2=Sundays and Mondays with my Lord
TTITLE3=No Money in this Deal
TTITLE4=Get Rhytm
TTITLE5=Last Day in the mines
TTITLE6=Settin flat on redy
TTITLE7=I Walk the line
TTITLE8=Cold Cold heart
TTITLE9=Oh Lonesome me
TTITLE10=Kiss an Angel good Morning
TTITLE11=Just out of reach
TTITLE12=Thanks a lot
TTITLE13=Seven Lonely days
TTITLE14=Little miss heartache
TTITLE15=There he goes
TTITLE16=Folsom prison blues
TTITLE17=The Cotton Patch
TTITLE18=Walkin after midnight
TTITLE19=King of the Road
TTITLE20=What am i living for
TTITLE21=I Heard that lomnesome whistle
TTITLE22=Dang me
EXTD=
EXTT0=
EXTT1=
EXTT2=
EXTT3=
EXTT4=
EXTT5=
EXTT6=
EXTT7=
EXTT8=
EXTT9=
EXTT10=
EXTT11=
EXTT12=
EXTT13=
EXTT14=
EXTT15=
EXTT16=
EXTT17=
EXTT18=
EXTT19=
EXTT20=
EXTT21=
EXTT22=
PLAYORDER=
